<svg xmlns="http://www.w3.org/2000/svg" width="1024" height="1024" viewBox="0 0 1024 1024">
  <defs>
    <clipPath id="rounded">
      <rect x="0" y="0" width="1024" height="1024" rx="200" ry="200"/>
    </clipPath>
  </defs>
  <rect x="0" y="0" width="1024" height="1024" rx="200" ry="200" fill="#f8c8d8"/>
  <g clip-path="url(#rounded)" fill="#ffffff">
    <!-- Left person (taller) -->
    <circle cx="380" cy="340" r="95"/>
    <path d="M280,480 C280,400 480,400 480,480 L480,820 C480,840 460,850 440,840 L420,820 L420,700 C420,680 340,680 340,700 L340,820 L320,840 C300,850 280,840 280,820 Z"/>
    <!-- Right person (shorter) -->
    <circle cx="644" cy="390" r="80"/>
    <path d="M564,520 C564,450 724,450 724,520 L724,750 C724,770 704,780 684,770 L664,750 L664,650 C664,630 624,630 624,650 L624,750 L604,770 C584,780 564,770 564,750 Z"/>
  </g>
</svg>